<svg width="128" height="126" viewBox="0 0 128 126" fill="none" xmlns="http://www.w3.org/2000/svg">
<g id="Logo centrado">
<g id="Group">
<path id="Vector" d="M52.448 121.046C51.2503 122.461 49.8347 123.623 48.2196 124.53C46.6045 125.456 44.7171 125.946 42.5757 126C39.3272 126.018 36.478 124.875 34.0099 122.606C31.4511 120.338 30.1444 116.636 30.0537 111.536C30.1082 106.364 31.3966 102.626 33.9373 100.285C36.3873 97.998 39.2365 96.8547 42.4849 96.891C44.6263 96.9273 46.5137 97.3628 48.1289 98.2339C49.7622 99.1232 51.1777 100.303 52.3754 101.791L49.2722 104.658C48.7822 105.112 48.0018 105.13 47.5118 104.64C46.2233 103.315 44.6082 102.644 42.6845 102.589C37.9843 102.535 35.6069 105.511 35.5525 111.518C35.6432 117.489 38.0387 120.429 42.739 120.32C44.7897 120.283 46.4774 119.503 47.8022 117.997C48.1107 117.652 48.637 117.616 48.9818 117.924L52.448 121.046Z" fill="white"/>
<path id="Vector_2" d="M55.6777 111.373C55.6596 108.379 55.8955 106.074 56.3673 104.459C56.8573 102.88 57.6195 101.555 58.6358 100.466C59.398 99.5225 60.4506 98.6696 61.8117 97.9255C63.1546 97.2178 64.8786 96.8367 66.9838 96.7822C69.1615 96.8185 70.9218 97.1815 72.2648 97.8892C73.5896 98.6333 74.624 99.4862 75.3499 100.43C76.4387 101.501 77.2191 102.825 77.6909 104.386C78.1446 105.983 78.3624 108.288 78.3806 111.282C78.3987 114.277 78.1809 116.563 77.7454 118.124C77.2917 119.703 76.5113 121.064 75.4225 122.207C75.0777 122.625 74.6421 123.042 74.134 123.441C73.6803 123.895 73.0814 124.294 72.3555 124.621C71.0126 125.419 69.2522 125.837 67.0745 125.873C64.9694 125.837 63.2453 125.438 61.9024 124.657C60.5413 123.949 59.4706 123.151 58.7084 122.262C57.674 121.118 56.9118 119.757 56.4218 118.197C55.9318 116.654 55.6777 114.367 55.6777 111.373ZM72.8455 111.355C72.8455 109.322 72.7366 107.834 72.5551 106.909C72.3737 106.019 72.0107 105.221 71.4481 104.549C71.0307 103.914 70.4318 103.406 69.6333 103.043C68.8711 102.662 67.9819 102.481 66.9656 102.481C66.0219 102.481 65.1509 102.68 64.3705 103.061C63.6083 103.424 62.9913 103.932 62.5194 104.586C62.0476 105.257 61.7028 106.056 61.485 106.945C61.2672 107.889 61.1765 109.34 61.1765 111.337C61.1765 113.315 61.3035 114.767 61.5032 115.674C61.7209 116.6 62.0657 117.434 62.5557 118.142C63.0276 118.687 63.6627 119.177 64.4249 119.594C65.2234 119.993 66.0945 120.193 67.0382 120.193C68.0545 120.193 68.9256 119.993 69.6878 119.576C70.4863 119.158 71.0852 118.668 71.4844 118.106C72.0288 117.38 72.3918 116.563 72.5733 115.62C72.7729 114.73 72.8455 113.297 72.8455 111.355Z" fill="white"/>
<path id="Vector_3" d="M85.0381 97.0726L90.5731 97.0544L90.5913 100.067H90.7002C92.515 97.8166 94.8923 96.6733 97.8504 96.6733C100.064 96.7096 101.988 97.4174 103.64 98.8329L100.5 102.698C100.046 103.261 99.2296 103.424 98.5945 103.079C97.7415 102.608 96.8704 102.372 95.9812 102.372C94.5656 102.372 93.3497 102.862 92.3516 103.805C91.2265 104.749 90.6457 106.255 90.6094 108.342L90.682 125.474L85.147 125.492L85.0381 97.0726Z" fill="white"/>
<path id="Vector_4" d="M110.067 113.351C110.067 115.638 110.72 117.362 111.991 118.559C113.188 119.757 114.731 120.356 116.673 120.356C118.923 120.356 120.919 119.412 122.68 117.561L125.402 119.939C126.128 120.574 126.128 121.717 125.42 122.37C122.916 124.621 120.048 125.728 116.818 125.71C115.366 125.71 113.951 125.51 112.571 125.074C111.882 124.839 111.21 124.53 110.557 124.131C109.867 123.786 109.214 123.369 108.615 122.842C107.435 121.79 106.492 120.32 105.766 118.414C104.967 116.599 104.55 114.222 104.55 111.3C104.532 108.487 104.877 106.146 105.566 104.277C106.256 102.372 107.127 100.884 108.198 99.7765C109.287 98.6514 110.521 97.8529 111.882 97.3447C113.225 96.8547 114.549 96.6007 115.856 96.5825C118.996 96.6007 121.663 97.6714 123.841 99.7584C126.055 101.882 127.198 104.822 127.235 108.56L127.253 113.26L110.067 113.351ZM121.7 108.614C121.627 106.4 121.046 104.713 119.957 103.588C118.887 102.517 117.526 101.972 115.856 101.972C114.186 101.972 112.825 102.517 111.773 103.606C110.738 104.749 110.158 106.437 110.067 108.651L121.7 108.614Z" fill="white"/>
<path id="Vector_5" d="M9.6546 97.7801L12.3586 102.317C13.1571 103.714 13.883 105.112 14.6089 106.4H14.7178C15.4437 104.948 16.1152 103.533 16.8411 102.19L19.2366 97.7438L27.0764 97.7075C27.6753 97.7075 28.0201 98.379 27.6935 98.869L19.5088 110.81L28.7097 125.129L19.0551 125.165L16.2967 120.247C15.4982 118.904 14.8267 117.507 14.1552 116.109H13.9919C13.3204 117.579 12.5945 118.922 11.9412 120.265L9.36424 125.219L0 125.256L9.25535 111.246L0.127034 97.8164L9.6546 97.7801Z" fill="#E0AA3B"/>
<path id="Vector_6" d="M83.6069 30.7243C83.6432 42.0667 74.4604 51.3039 63.0636 51.3402C51.6668 51.3765 42.4115 42.2119 42.357 30.8695C42.3207 19.5272 51.5035 10.29 62.9003 10.2537C74.2971 10.1992 83.5524 19.3638 83.6069 30.7243Z" fill="#545A5E"/>
</g>
<g id="Group_2">
<g id="Clip path group">
<mask id="mask0_95_660" style="mask-type:luminance" maskUnits="userSpaceOnUse" x="42" y="10" width="42" height="42">
<g id="SVGID_2_">
<path id="Vector_7" d="M62.8277 10.2534C51.4854 10.2897 42.3207 19.5269 42.357 30.8693C42.3933 42.2116 51.6305 51.3762 62.9729 51.3399C74.3152 51.3036 83.4798 42.0664 83.4435 30.7241C83.4072 19.3999 74.2063 10.2534 62.9003 10.2534C62.8821 10.2534 62.8458 10.2534 62.8277 10.2534Z" fill="white"/>
</g>
</mask>
<g mask="url(#mask0_95_660)">
<g id="Group_3" opacity="0.51">
<g id="Group_4">
<g id="Clip path group_2">
<mask id="mask1_95_660" style="mask-type:luminance" maskUnits="userSpaceOnUse" x="62" y="7" width="24" height="45">
<g id="SVGID_4_">
<path id="Vector_8" d="M85.3837 7.9668H62.5176V51.7754H85.3837V7.9668Z" fill="white"/>
</g>
</mask>
<g mask="url(#mask1_95_660)">
<path id="Vector_9" d="M63.0257 23.9368L62.5176 7.9668L85.3656 16.5507L83.1879 41.6671L69.0689 51.7754L63.1346 51.3399L63.0257 23.9368Z" fill="#444647"/>
</g>
</g>
</g>
</g>
</g>
</g>
</g>
<path id="Vector_10" d="M79.4864 9.49126C86.818 15.1534 90.502 22.6847 90.375 31.9582C90.3206 36.0958 89.2135 40.052 87.8162 43.9175C83.6059 55.5321 77.9982 66.4025 70.4851 76.2386C69.0333 78.1441 67.3637 79.85 65.3493 81.193C63.4801 82.427 61.4657 82.3726 59.6327 81.0841C59.052 80.6848 58.5257 80.213 58.0176 79.723C55.985 77.7812 54.3336 75.4946 52.7184 73.2261C49.3248 68.4351 46.4756 63.3174 43.8986 58.0546C40.995 52.1384 38.4543 46.0771 36.7666 39.6891C35.4418 34.7166 35.0425 29.726 36.2947 24.6628C39.3073 12.5038 50.5226 3.77473 63.0445 3.90176C69.124 3.9925 74.6591 5.77098 79.4864 9.49126ZM39.1439 28.6734C38.7628 31.813 39.271 34.8436 40.0513 37.8562C41.7391 44.2986 44.2979 50.4325 47.2378 56.385C49.7241 61.4301 52.3736 66.3844 55.5132 71.0484C57.0013 73.2442 58.7072 75.2586 60.5401 77.1642C60.9938 77.636 61.629 77.9264 62.1916 78.253C62.3549 78.3438 62.6816 78.3438 62.863 78.253C63.4982 77.9082 64.1697 77.5816 64.6778 77.1097C67.5451 74.3876 69.8862 71.2117 72.0095 67.8907C77.0001 60.0508 81.0834 51.7573 84.1322 42.9557C85.2029 39.8706 86.1647 36.731 86.5277 33.4644C87.0903 28.4738 86.074 23.7554 83.497 19.4725C78.7786 11.5964 71.6647 7.85796 63.9337 7.62204C50.5407 7.78537 40.5958 16.7141 39.1439 28.6734Z" fill="url(#paint0_linear_95_660)"/>
<g id="Group_5" opacity="0.28">
<g id="Group_6">
<g id="Clip path group_3">
<mask id="mask2_95_660" style="mask-type:luminance" maskUnits="userSpaceOnUse" x="35" y="0" width="59" height="93">
<g id="SVGID_7_">
<path id="Vector_11" d="M93.8419 0H35.5332V92.4265H93.8419V0Z" fill="white"/>
</g>
</mask>
<g mask="url(#mask2_95_660)">
<g id="Group_7">
<g id="Clip path group_4">
<mask id="mask3_95_660" style="mask-type:luminance" maskUnits="userSpaceOnUse" x="61" y="0" width="33" height="93">
<g id="SVGID_9_">
<path id="Vector_12" d="M61.4307 0L62.4651 92.4265L90.213 64.9871L93.8425 10.4894L75.2048 0.580728L61.4307 0Z" fill="white"/>
</g>
</mask>
<g mask="url(#mask3_95_660)">
<path id="Vector_13" d="M79.4864 9.49126C86.818 15.1534 90.502 22.6847 90.375 31.9582C90.3206 36.0958 89.2135 40.052 87.8162 43.9175C83.6059 55.5321 77.9982 66.4025 70.4851 76.2386C69.0333 78.1441 67.3637 79.85 65.3493 81.193C63.4801 82.427 61.4657 82.3726 59.6327 81.0841C59.052 80.6848 58.5257 80.213 58.0176 79.723C55.985 77.7812 54.3336 75.4946 52.7184 73.2261C49.3248 68.4351 46.4756 63.3174 43.8986 58.0546C40.995 52.1384 38.4543 46.0771 36.7666 39.6891C35.4418 34.7166 35.0425 29.726 36.2947 24.6628C39.3073 12.5038 50.5226 3.77473 63.0445 3.90176C69.124 3.9925 74.6591 5.77098 79.4864 9.49126ZM39.1439 28.6734C38.7628 31.813 39.271 34.8436 40.0513 37.8562C41.7391 44.2986 44.2979 50.4325 47.2378 56.385C49.7241 61.4301 52.3736 66.3844 55.5132 71.0484C57.0013 73.2442 58.7072 75.2586 60.5401 77.1642C60.9938 77.636 61.629 77.9264 62.1916 78.253C62.3549 78.3438 62.6816 78.3438 62.863 78.253C63.4982 77.9082 64.1697 77.5816 64.6778 77.1097C67.5451 74.3876 69.8862 71.2117 72.0095 67.8907C77.0001 60.0508 81.0834 51.7573 84.1322 42.9557C85.2029 39.8706 86.1647 36.731 86.5277 33.4644C87.0903 28.4738 86.074 23.7554 83.497 19.4725C78.7786 11.5964 71.6647 7.85796 63.9337 7.62204C50.5407 7.78537 40.5958 16.7141 39.1439 28.6734Z" fill="#444647"/>
</g>
</g>
</g>
</g>
</g>
</g>
</g>
<path id="Vector_14" d="M42.0132 24.9893V24.2997C42.2491 24.1727 42.4669 24.2634 42.6847 24.3723C44.8624 25.4612 47.1853 26.0419 49.6171 26.1508C51.0326 26.2052 52.4663 26.2234 53.9 26.296C55.1703 26.3504 56.4225 26.55 57.6202 26.9674C59.4532 27.5845 61.032 28.637 62.4475 29.9255C62.7742 30.234 62.9375 30.2159 63.2642 29.9255C63.3912 29.8166 63.5001 29.7077 63.6272 29.617C65.5327 27.9656 67.6741 26.786 70.1966 26.4774C71.6666 26.296 73.1547 26.2415 74.6247 26.2234C77.6191 26.1689 80.5046 25.6971 83.1904 24.3179C83.3175 24.2453 83.5534 24.2453 83.6441 24.336C83.7349 24.4086 83.753 24.6445 83.7167 24.7897C82.8456 27.7296 81.666 30.5425 79.9964 33.1195C78.835 34.898 77.492 36.5131 75.7498 37.7472C73.4088 39.4168 70.8137 39.9612 67.9826 39.3986C66.8574 39.1809 65.8956 38.6364 64.9519 38.0194C64.1897 37.5294 63.3731 37.2572 62.4657 37.3661C61.7035 37.4568 61.0683 37.8379 60.4513 38.2372C57.5114 40.0701 54.4625 40.0338 51.4137 38.582C49.4901 37.6746 48.0382 36.2046 46.7497 34.535C44.8079 31.9944 43.4832 29.127 42.4306 26.1145C42.2854 25.7515 42.1402 25.3704 42.0132 24.9893ZM57.6928 35.0795C58.0195 35.025 58.6547 34.9524 59.2717 34.8073C59.7798 34.6984 59.925 34.3354 59.6891 33.8636C58.818 32.0669 57.4932 30.8873 55.4062 30.7785C54.027 30.7059 52.7566 31.0325 51.7041 31.9944C51.323 32.3392 51.3048 32.7566 51.7041 33.0832C52.1033 33.428 52.5207 33.7547 52.9744 34.0088C54.3355 34.7528 55.8236 35.0069 57.6928 35.0795ZM68.2548 35.1158C68.9989 35.025 69.6885 34.9706 70.3781 34.8436C71.7029 34.5895 72.9369 34.1176 73.9532 33.174C74.4432 32.7203 74.4432 32.3573 73.9532 31.9218C72.7192 30.851 71.2492 30.597 69.6885 30.851C67.9282 31.1596 66.8212 32.3029 66.0771 33.8454C65.8412 34.3354 66.0045 34.7165 66.5308 34.8254C67.0934 34.9524 67.6922 35.025 68.2548 35.1158Z" fill="url(#paint1_linear_95_660)"/>
<g id="Group_8" opacity="0.29">
<g id="Group_9">
<g id="Clip path group_5">
<mask id="mask4_95_660" style="mask-type:luminance" maskUnits="userSpaceOnUse" x="62" y="24" width="23" height="16">
<g id="SVGID_12_">
<path id="Vector_15" d="M84.0786 24.1187H62.9365V39.7076H84.0786V24.1187Z" fill="white"/>
</g>
</mask>
<g mask="url(#mask4_95_660)">
<path id="Vector_16" d="M62.9365 30.1093C62.9365 30.1093 63.5354 29.6556 63.6443 29.5467C65.5679 27.8771 67.7457 26.6612 70.3227 26.3527C71.8108 26.1713 73.317 26.1168 74.8233 26.0987C77.854 26.0442 80.7939 25.5542 83.5161 24.1569C83.6431 24.0843 83.8972 24.0843 83.9879 24.175C84.0786 24.2476 84.0968 24.5017 84.0605 24.6287C83.1713 27.6231 81.9735 30.4723 80.2858 33.1037C79.1062 34.9185 77.7451 36.5518 75.9666 37.804C73.5893 39.4917 70.9578 40.0543 68.0905 39.4736C66.9472 39.2558 63.9165 37.9854 62.9547 37.3866V30.1093H62.9365ZM68.3446 35.1362C69.1068 35.0455 69.8145 34.9911 70.5041 34.8459C71.8471 34.5918 73.0993 34.1018 74.1337 33.14C74.6418 32.6682 74.6418 32.3052 74.1337 31.8697C72.8633 30.7808 71.3934 30.5267 69.7964 30.7989C67.9997 31.1074 66.8746 32.2689 66.1124 33.8296C65.8765 34.3377 66.0398 34.7007 66.5661 34.8277C67.1649 34.9729 67.782 35.0455 68.3446 35.1362Z" fill="#444647"/>
</g>
</g>
</g>
</g>
<g id="Group_10">
<path id="Vector_17" d="M70.7037 88.3613H54.6611C54.1167 88.3613 53.6812 87.9258 53.6812 87.3813C53.6812 86.8369 54.1167 86.4014 54.6611 86.4014H70.7037C71.2482 86.4014 71.6837 86.8369 71.6837 87.3813C71.7019 87.9258 71.2482 88.3613 70.7037 88.3613Z" fill="#E0AA3B"/>
</g>
<g id="Group_11" opacity="0.28">
<g id="Group_12">
<g id="Clip path group_6">
<mask id="mask5_95_660" style="mask-type:luminance" maskUnits="userSpaceOnUse" x="35" y="0" width="59" height="93">
<g id="SVGID_14_">
<path id="Vector_18" d="M93.8419 0H35.5332V92.4265H93.8419V0Z" fill="white"/>
</g>
</mask>
<g mask="url(#mask5_95_660)">
<g id="Group_13">
<g id="Clip path group_7">
<mask id="mask6_95_660" style="mask-type:luminance" maskUnits="userSpaceOnUse" x="61" y="0" width="33" height="93">
<g id="SVGID_16_">
<path id="Vector_19" d="M61.4307 0L62.4651 92.4265L90.213 64.9871L93.8425 10.4894L75.2048 0.580728L61.4307 0Z" fill="white"/>
</g>
</mask>
<g mask="url(#mask6_95_660)">
<path id="Vector_20" d="M79.4864 9.49126C86.818 15.1534 90.502 22.6847 90.375 31.9582C90.3206 36.0958 89.2135 40.052 87.8162 43.9175C83.6059 55.5321 77.9982 66.4025 70.4851 76.2386C69.0333 78.1441 67.3637 79.85 65.3493 81.193C63.4801 82.427 61.4657 82.3726 59.6327 81.0841C59.052 80.6848 58.5257 80.213 58.0176 79.723C55.985 77.7812 54.3336 75.4946 52.7184 73.2261C49.3248 68.4351 46.4756 63.3174 43.8986 58.0546C40.995 52.1384 38.4543 46.0771 36.7666 39.6891C35.4418 34.7166 35.0425 29.726 36.2947 24.6628C39.3073 12.5038 50.5226 3.77473 63.0445 3.90176C69.124 3.9925 74.6591 5.77098 79.4864 9.49126ZM39.1439 28.6734C38.7628 31.813 39.271 34.8436 40.0513 37.8562C41.7391 44.2986 44.2979 50.4325 47.2378 56.385C49.7241 61.4301 52.3736 66.3844 55.5132 71.0484C57.0013 73.2442 58.7072 75.2586 60.5401 77.1642C60.9938 77.636 61.629 77.9264 62.1916 78.253C62.3549 78.3438 62.6816 78.3438 62.863 78.253C63.4982 77.9082 64.1697 77.5816 64.6778 77.1097C67.5451 74.3876 69.8862 71.2117 72.0095 67.8907C77.0001 60.0508 81.0834 51.7573 84.1322 42.9557C85.2029 39.8706 86.1647 36.731 86.5277 33.4644C87.0903 28.4738 86.074 23.7554 83.497 19.4725C78.7786 11.5964 71.6647 7.85796 63.9337 7.62204C50.5407 7.78537 40.5958 16.7141 39.1439 28.6734Z" fill="#444647"/>
</g>
</g>
</g>
</g>
</g>
</g>
</g>
</g>
<defs>
<linearGradient id="paint0_linear_95_660" x1="35.5282" y1="43.0096" x2="90.377" y2="43.0096" gradientUnits="userSpaceOnUse">
<stop stop-color="#E3B95C"/>
<stop offset="0.2279" stop-color="#CAAA6B"/>
<stop offset="0.414" stop-color="#CAA03B"/>
<stop offset="0.586" stop-color="#FDD274"/>
<stop offset="0.7721" stop-color="#AA7900"/>
<stop offset="1" stop-color="#EFC569"/>
</linearGradient>
<linearGradient id="paint1_linear_95_660" x1="42.0117" y1="31.9457" x2="83.7436" y2="31.9457" gradientUnits="userSpaceOnUse">
<stop stop-color="#E3B95C"/>
<stop offset="0.2279" stop-color="#CAAA6B"/>
<stop offset="0.414" stop-color="#CAA03B"/>
<stop offset="0.586" stop-color="#FDD274"/>
<stop offset="0.7721" stop-color="#AA7900"/>
<stop offset="1" stop-color="#EFC569"/>
</linearGradient>
</defs>
</svg>
