<svg width="16" height="17" viewBox="0 0 16 17" fill="none" xmlns="http://www.w3.org/2000/svg">
<g id="mini logo ubicaci&#195;&#179;n">
<path id="Vector" d="M7.99699 9.01636C8.6635 9.01636 9.21408 8.81964 9.67774 8.4262C10.1414 8.03275 10.3732 7.54095 10.3732 6.99997C10.3732 6.43439 10.1414 5.96718 9.67774 5.57374C9.21408 5.15571 8.63452 4.95898 7.96802 4.95898C7.30152 4.95898 6.75093 5.15571 6.28728 5.54915C5.82362 5.94259 5.5918 6.43439 5.5918 6.99997C5.5918 7.56554 5.82362 8.03275 6.28728 8.4262C6.75093 8.81964 7.33049 9.01636 7.99699 9.01636Z" stroke="#AA7900" stroke-width="1.39" stroke-miterlimit="10"/>
<path id="Vector_2" d="M7.99649 16C5.62027 14.2787 3.85259 12.7049 2.69346 11.2295C1.53433 9.7541 0.925781 8.40164 0.925781 7.14754C0.925781 5.27869 1.65024 3.77869 3.07018 2.67213C4.49011 1.56557 6.14188 1 7.99649 1C9.8511 1 11.5029 1.56557 12.9228 2.67213C14.3427 3.77869 15.0672 5.27869 15.0672 7.14754C15.0672 8.40164 14.4876 9.7541 13.2995 11.2295C12.1114 12.7049 10.3437 14.2787 7.99649 16Z" stroke="#AA7900" stroke-width="1.25" stroke-miterlimit="10"/>
</g>
</svg>
